<?xml version="1.0" encoding="UTF-8"?>
<svg id="Layer_2" data-name="Layer 2" xmlns="http://www.w3.org/2000/svg" viewBox="0 0 592.74 93.44">
  <defs>
    <style>
      .cls-1 {
        letter-spacing: -.03em;
      }

      .cls-2 {
        fill: #199454;
      }

      .cls-3 {
        letter-spacing: 0em;
      }

      .cls-4 {
        font-family: ProductSans-Regular, 'Product Sans';
        font-size: 82.91px;
      }

      .cls-4, .cls-5 {
        fill: #4d4d4d;
      }

      .cls-6 {
        letter-spacing: 0em;
      }

      .cls-7 {
        letter-spacing: -.02em;
      }

      .cls-8 {
        letter-spacing: -.06em;
      }

      .cls-9 {
        letter-spacing: 0em;
      }

      .cls-10 {
        letter-spacing: -.01em;
      }

      .cls-11 {
        letter-spacing: -.01em;
      }
    </style>
  </defs>
  <g id="Layer_1-2" data-name="Layer 1">
    <g>
      <text class="cls-4" transform="translate(0 71.13)"><tspan class="cls-8" x="0" y="0">T</tspan><tspan class="cls-7" x="39.79" y="0">r</tspan><tspan class="cls-9" x="68.23" y="0">a</tspan><tspan class="cls-6" x="110.51" y="0">n</tspan><tspan class="cls-9" x="155.04" y="0">s</tspan><tspan class="cls-1" x="192.76" y="0">f</tspan><tspan x="220.78" y="0">er</tspan></text>
      <text class="cls-4" transform="translate(410.35 72.46)"><tspan class="cls-10" x="0" y="0">M</tspan><tspan class="cls-11" x="67.57" y="0">a</tspan><tspan class="cls-3" x="109.02" y="0">t</tspan><tspan x="137.96" y="0">e</tspan></text>
      <path class="cls-2" d="M349.05,69.39c-12.91,0-23.42-10.5-23.42-23.42s10.5-23.42,23.42-23.42,23.42,10.5,23.42,23.42-10.5,23.42-23.42,23.42Zm0-43.89c-11.29,0-20.47,9.18-20.47,20.47s9.18,20.47,20.47,20.47,20.47-9.18,20.47-20.47-9.18-20.47-20.47-20.47Z"/>
      <polygon class="cls-5" points="383.42 38.62 317.08 38.62 325.94 27.2 328.27 29.01 323.09 35.67 376.39 35.67 369.95 29.14 372.04 27.07 383.42 38.62"/>
      <polygon class="cls-5" points="328.47 68.5 317.1 56.95 383.43 56.95 374.57 68.36 372.25 66.56 377.42 59.89 324.13 59.89 330.57 66.43 328.47 68.5"/>
    </g>
  </g>
</svg>